<?xml version="1.0" encoding="UTF-8" standalone="no"?>
<!-- Generator: Adobe Illustrator 25.4.1, SVG Export Plug-In . SVG Version: 6.00 Build 0)  -->

<svg
   version="1.1"
   id="Layer_1"
   x="0px"
   y="0px"
   viewBox="0 0 506.00002 140"
   xml:space="preserve"
   sodipodi:docname="logo-operato.svg"
   width="506"
   height="140"
   inkscape:version="1.2.1 (9c6d41e410, 2022-07-14)"
   xmlns:inkscape="http://www.inkscape.org/namespaces/inkscape"
   xmlns:sodipodi="http://sodipodi.sourceforge.net/DTD/sodipodi-0.dtd"
   xmlns="http://www.w3.org/2000/svg"
   xmlns:svg="http://www.w3.org/2000/svg"><defs
   id="defs281" /><sodipodi:namedview
   id="namedview279"
   pagecolor="#ffffff"
   bordercolor="#000000"
   borderopacity="0.25"
   inkscape:showpageshadow="2"
   inkscape:pageopacity="0.0"
   inkscape:pagecheckerboard="0"
   inkscape:deskcolor="#d1d1d1"
   showgrid="false"
   inkscape:zoom="2.5876701"
   inkscape:cx="234.9604"
   inkscape:cy="62.024908"
   inkscape:window-width="2065"
   inkscape:window-height="1236"
   inkscape:window-x="1220"
   inkscape:window-y="517"
   inkscape:window-maximized="0"
   inkscape:current-layer="g276" />
<style
   type="text/css"
   id="style218">
	.st0{fill:#102028;}
</style>
<g
   id="g276"
   transform="translate(-31.19,-81.25)">
	
	<g
   id="g371"
   transform="translate(21.98,9.515)"
   style="fill:#ffffff"><g
     id="g258"
     style="fill:#ffffff">
		<path
   class="st0"
   d="m 427.06,187.9 -2.54,-1.28 c -0.55,-0.27 -1.43,-0.77 -1.43,-1.56 0,-1.16 0.99,-1.53 1.87,-1.53 0.9,0 2.09,0.35 3,0.79 0.15,0.07 0.29,0.12 0.4,0.12 0.2,0 0.33,-0.12 0.44,-0.44 l 0.68,-1.93 c 0.04,-0.15 0.09,-0.27 0.09,-0.37 0,-0.22 -0.13,-0.4 -0.48,-0.57 -1.39,-0.67 -2.76,-0.99 -4.34,-0.99 -2.58,0 -5.4,1.78 -5.4,4.94 0,2.07 1.08,3.61 2.71,4.45 l 2.95,1.53 c 0.68,0.35 1.34,0.81 1.34,1.75 0,1.21 -1.17,1.75 -2.09,1.75 -1.02,0 -2.14,-0.25 -3.15,-0.65 l -0.95,-0.4 -0.38,1.33 -0.39,1.32 c -0.04,0.15 -0.09,0.3 -0.09,0.42 0,0.22 0.11,0.4 0.46,0.52 1.43,0.57 3.17,0.89 4.61,0.89 3.02,0 5.56,-2.07 5.56,-5.63 -0.01,-2.23 -1.13,-3.57 -2.87,-4.46 z"
   id="path220"
   style="fill:#ffffff" />
		<polygon
   class="st0"
   points="405.84,197.65 405.84,194.23 399.93,194.23 399.93,180.52 396.16,180.52 396.16,197.65 "
   id="polygon222"
   style="fill:#ffffff" />
		<path
   class="st0"
   d="m 384.11,180.52 v 17.13 h 10.66 v -3.42 h -6.89 v -3.43 h 5.38 c 0.49,0 0.74,-0.24 0.74,-0.77 v -1.93 c 0,-0.42 -0.2,-0.72 -0.77,-0.72 h -5.35 v -3.41 h 6.89 v -3.42 -0.04 h -10.66 z"
   id="path224"
   style="fill:#ffffff" />
		<path
   class="st0"
   d="m 407.11,180.52 v 17.13 h 10.66 v -3.42 h -6.89 v -3.43 h 5.38 c 0.49,0 0.74,-0.24 0.74,-0.77 v -1.93 c 0,-0.42 -0.2,-0.72 -0.77,-0.72 h -5.35 v -3.41 h 6.89 v -3.42 -0.04 h -10.66 z"
   id="path226"
   style="fill:#ffffff" />
		<g
   id="g244"
   style="fill:#ffffff">
			<path
   class="st0"
   d="m 284.99,187.02 c 0.56,0.62 0.84,1.46 0.84,2.52 v 8.11 h -1.97 v -7.83 c 0,-1.46 -0.53,-2.19 -1.59,-2.19 -0.56,0 -1.03,0.16 -1.42,0.48 -0.39,0.32 -0.8,0.83 -1.24,1.51 v 8.02 h -1.97 v -7.83 c 0,-1.46 -0.53,-2.19 -1.59,-2.19 -0.57,0 -1.05,0.16 -1.44,0.49 -0.39,0.33 -0.79,0.83 -1.22,1.5 v 8.02 h -1.97 v -11.31 h 1.7 l 0.17,1.65 c 0.84,-1.27 1.93,-1.91 3.26,-1.91 0.7,0 1.3,0.18 1.79,0.54 0.49,0.36 0.85,0.86 1.06,1.5 0.44,-0.66 0.93,-1.16 1.47,-1.51 0.54,-0.35 1.17,-0.53 1.9,-0.53 0.92,0.02 1.67,0.34 2.22,0.96 z"
   id="path228"
   style="fill:#ffffff" />
			<path
   class="st0"
   d="m 298.3,192.67 h -7.21 c 0.09,1.24 0.4,2.16 0.94,2.75 0.54,0.59 1.24,0.88 2.1,0.88 0.54,0 1.04,-0.08 1.5,-0.24 0.46,-0.16 0.94,-0.41 1.44,-0.75 l 0.86,1.18 c -1.2,0.94 -2.52,1.42 -3.95,1.42 -1.57,0 -2.8,-0.52 -3.68,-1.54 -0.88,-1.03 -1.32,-2.45 -1.32,-4.25 0,-1.17 0.19,-2.21 0.57,-3.12 0.38,-0.91 0.92,-1.62 1.63,-2.13 0.71,-0.52 1.54,-0.77 2.5,-0.77 1.5,0 2.65,0.49 3.45,1.48 0.8,0.99 1.2,2.35 1.2,4.1 0.01,0.31 -0.01,0.65 -0.03,0.99 z m -1.91,-1.59 c 0,-1.12 -0.22,-1.97 -0.66,-2.55 -0.44,-0.59 -1.11,-0.88 -2,-0.88 -1.62,0 -2.5,1.19 -2.64,3.56 h 5.3 z"
   id="path230"
   style="fill:#ffffff" />
			<path
   class="st0"
   d="m 315.07,187.02 c 0.56,0.62 0.84,1.46 0.84,2.52 v 8.11 h -1.97 v -7.83 c 0,-1.46 -0.53,-2.19 -1.59,-2.19 -0.56,0 -1.03,0.16 -1.42,0.48 -0.39,0.32 -0.8,0.83 -1.24,1.51 v 8.02 h -1.97 v -7.83 c 0,-1.46 -0.53,-2.19 -1.59,-2.19 -0.57,0 -1.05,0.16 -1.44,0.49 -0.39,0.33 -0.79,0.83 -1.22,1.5 v 8.02 h -1.97 v -11.31 h 1.7 l 0.17,1.65 c 0.84,-1.27 1.93,-1.91 3.26,-1.91 0.7,0 1.3,0.18 1.79,0.54 0.49,0.36 0.85,0.86 1.06,1.5 0.44,-0.66 0.93,-1.16 1.47,-1.51 0.54,-0.35 1.17,-0.53 1.9,-0.53 0.92,0.02 1.67,0.34 2.22,0.96 z"
   id="path232"
   style="fill:#ffffff" />
			<path
   class="st0"
   d="m 328.12,187.64 c 0.76,1.04 1.14,2.49 1.14,4.34 0,1.17 -0.18,2.21 -0.54,3.1 -0.36,0.89 -0.87,1.59 -1.55,2.08 -0.67,0.49 -1.46,0.74 -2.36,0.74 -1.19,0 -2.19,-0.5 -3,-1.5 l -0.19,1.24 h -1.74 v -15.86 l 1.97,-0.24 v 6.2 c 0.82,-1.12 1.88,-1.67 3.2,-1.67 1.29,0.01 2.31,0.53 3.07,1.57 z m -1.73,7.64 c 0.49,-0.71 0.74,-1.81 0.74,-3.29 0,-1.53 -0.23,-2.64 -0.69,-3.32 -0.46,-0.68 -1.11,-1.02 -1.95,-1.02 -1,0 -1.88,0.59 -2.64,1.76 v 5.41 c 0.3,0.47 0.67,0.84 1.11,1.12 0.44,0.27 0.9,0.41 1.38,0.41 0.88,-0.01 1.56,-0.36 2.05,-1.07 z"
   id="path234"
   style="fill:#ffffff" />
			<path
   class="st0"
   d="m 341.12,192.67 h -7.21 c 0.09,1.24 0.4,2.16 0.94,2.75 0.54,0.59 1.24,0.88 2.1,0.88 0.54,0 1.04,-0.08 1.5,-0.24 0.46,-0.16 0.94,-0.41 1.44,-0.75 l 0.86,1.18 c -1.2,0.94 -2.52,1.42 -3.95,1.42 -1.57,0 -2.8,-0.52 -3.68,-1.54 -0.88,-1.03 -1.32,-2.45 -1.32,-4.25 0,-1.17 0.19,-2.21 0.57,-3.12 0.38,-0.91 0.92,-1.62 1.63,-2.13 0.71,-0.52 1.54,-0.77 2.5,-0.77 1.5,0 2.65,0.49 3.45,1.48 0.8,0.99 1.2,2.35 1.2,4.1 0.02,0.31 0,0.65 -0.03,0.99 z m -1.91,-1.59 c 0,-1.12 -0.22,-1.97 -0.66,-2.55 -0.44,-0.59 -1.11,-0.88 -2,-0.88 -1.62,0 -2.5,1.19 -2.64,3.56 h 5.3 z"
   id="path236"
   style="fill:#ffffff" />
			<path
   class="st0"
   d="m 350.35,186.21 -0.36,1.93 c -0.34,-0.09 -0.67,-0.13 -0.99,-0.13 -0.7,0 -1.27,0.26 -1.69,0.77 -0.43,0.52 -0.77,1.32 -1.01,2.4 v 6.46 h -1.97 v -11.31 h 1.7 l 0.19,2.3 c 0.3,-0.84 0.71,-1.48 1.22,-1.91 0.51,-0.43 1.12,-0.64 1.8,-0.64 0.39,0 0.77,0.05 1.11,0.13 z"
   id="path238"
   style="fill:#ffffff" />
			<path
   class="st0"
   d="m 366.24,187.67 c 0.88,1.06 1.32,2.5 1.32,4.31 0,1.17 -0.2,2.21 -0.6,3.1 -0.4,0.89 -0.98,1.59 -1.74,2.08 -0.76,0.49 -1.66,0.74 -2.7,0.74 -1.59,0 -2.82,-0.53 -3.71,-1.59 -0.89,-1.06 -1.33,-2.5 -1.33,-4.31 0,-1.17 0.2,-2.21 0.6,-3.1 0.4,-0.89 0.98,-1.59 1.74,-2.08 0.76,-0.49 1.67,-0.74 2.73,-0.74 1.57,0 2.81,0.53 3.69,1.59 z m -6.64,4.34 c 0,2.88 0.97,4.31 2.92,4.31 1.95,0 2.92,-1.44 2.92,-4.33 0,-2.88 -0.97,-4.31 -2.9,-4.31 -1.96,-0.01 -2.94,1.44 -2.94,4.33 z"
   id="path240"
   style="fill:#ffffff" />
			<path
   class="st0"
   d="m 373.37,183.54 c -0.26,0.26 -0.39,0.68 -0.39,1.23 v 1.57 h 2.75 l -0.21,1.52 h -2.53 v 9.78 h -1.97 v -9.78 H 369 v -1.52 h 2.02 v -1.54 c 0,-0.97 0.31,-1.76 0.93,-2.35 0.62,-0.59 1.49,-0.89 2.61,-0.89 0.52,0 0.98,0.05 1.38,0.14 0.4,0.09 0.85,0.24 1.32,0.44 l -0.62,1.44 c -0.64,-0.29 -1.3,-0.43 -1.97,-0.43 -0.61,-0.01 -1.04,0.13 -1.3,0.39 z"
   id="path242"
   style="fill:#ffffff" />
		</g>
		<g
   id="g256"
   style="fill:#ffffff">
			<path
   class="st0"
   d="m 445.61,183.01 c 0.68,0.26 1.36,0.68 2.03,1.23 l -1.2,1.24 c -0.53,-0.43 -1.04,-0.74 -1.52,-0.92 -0.49,-0.19 -1.06,-0.28 -1.72,-0.28 -0.76,0 -1.46,0.2 -2.09,0.61 -0.64,0.41 -1.16,1.06 -1.56,1.95 -0.4,0.89 -0.6,2.03 -0.6,3.4 0,2.07 0.34,3.59 1.02,4.55 0.68,0.96 1.68,1.44 3.01,1.44 1.09,0 2.02,-0.22 2.81,-0.67 v -4.46 h -2.62 l -0.24,-1.65 h 4.87 v 7.14 c -1.53,0.87 -3.14,1.31 -4.83,1.31 -1.95,0 -3.46,-0.65 -4.56,-1.95 -1.09,-1.3 -1.64,-3.2 -1.64,-5.71 0,-1.6 0.29,-2.98 0.87,-4.13 0.58,-1.15 1.36,-2.02 2.34,-2.62 0.98,-0.59 2.05,-0.89 3.21,-0.89 0.94,0.01 1.74,0.14 2.42,0.41 z"
   id="path246"
   style="fill:#ffffff" />
			<path
   class="st0"
   d="m 457.21,186.21 -0.36,1.93 c -0.34,-0.09 -0.67,-0.13 -0.99,-0.13 -0.7,0 -1.27,0.26 -1.69,0.77 -0.43,0.52 -0.77,1.32 -1.01,2.4 v 6.46 h -1.97 v -11.31 h 1.7 l 0.19,2.3 c 0.3,-0.84 0.71,-1.48 1.22,-1.91 0.51,-0.43 1.12,-0.64 1.8,-0.64 0.4,0 0.77,0.05 1.11,0.13 z"
   id="path248"
   style="fill:#ffffff" />
			<path
   class="st0"
   d="m 466.77,187.67 c 0.88,1.06 1.32,2.5 1.32,4.31 0,1.17 -0.2,2.21 -0.6,3.1 -0.4,0.89 -0.98,1.59 -1.74,2.08 -0.76,0.49 -1.66,0.74 -2.7,0.74 -1.59,0 -2.82,-0.53 -3.71,-1.59 -0.89,-1.06 -1.33,-2.5 -1.33,-4.31 0,-1.17 0.2,-2.21 0.6,-3.1 0.4,-0.89 0.98,-1.59 1.74,-2.08 0.76,-0.49 1.67,-0.74 2.73,-0.74 1.58,0 2.81,0.53 3.69,1.59 z m -6.64,4.34 c 0,2.88 0.97,4.31 2.92,4.31 1.95,0 2.92,-1.44 2.92,-4.33 0,-2.88 -0.97,-4.31 -2.9,-4.31 -1.96,-0.01 -2.94,1.44 -2.94,4.33 z"
   id="path250"
   style="fill:#ffffff" />
			<path
   class="st0"
   d="m 479.76,197.65 h -1.69 l -0.15,-1.76 c -0.43,0.7 -0.92,1.21 -1.48,1.53 -0.56,0.32 -1.24,0.48 -2.04,0.48 -0.99,0 -1.76,-0.3 -2.32,-0.9 -0.56,-0.6 -0.84,-1.45 -0.84,-2.55 v -8.11 h 1.97 v 7.9 c 0,0.77 0.14,1.32 0.41,1.64 0.27,0.32 0.71,0.48 1.33,0.48 1.1,0 2.05,-0.65 2.83,-1.95 v -8.07 h 1.97 v 11.31 z"
   id="path252"
   style="fill:#ffffff" />
			<path
   class="st0"
   d="m 492.21,187.63 c 0.67,1.03 1.01,2.48 1.01,4.36 0,1.77 -0.39,3.2 -1.16,4.29 -0.77,1.09 -1.87,1.63 -3.28,1.63 -1.26,0 -2.25,-0.43 -2.96,-1.29 v 5.36 l -1.97,0.24 v -15.88 h 1.7 l 0.15,1.52 c 0.41,-0.57 0.91,-1.01 1.5,-1.32 0.59,-0.31 1.2,-0.46 1.85,-0.46 1.43,0 2.48,0.52 3.16,1.55 z m -1.12,4.35 c 0,-2.89 -0.85,-4.33 -2.55,-4.33 -0.56,0 -1.07,0.16 -1.52,0.49 -0.46,0.33 -0.86,0.75 -1.2,1.27 v 5.51 c 0.29,0.44 0.64,0.78 1.07,1.02 0.43,0.24 0.9,0.35 1.42,0.35 1.85,0.01 2.78,-1.43 2.78,-4.31 z"
   id="path254"
   style="fill:#ffffff" />
		</g>
	</g><g
     id="g274"
     style="fill:#ffffff">
		<path
   class="st0"
   d="m 48.23,167.81 c -5.3,-2.82 -9.47,-6.71 -12.5,-11.69 -3.03,-4.97 -4.54,-10.58 -4.54,-16.81 0,-6.23 1.51,-11.84 4.54,-16.81 3.03,-4.97 7.19,-8.87 12.5,-11.69 5.3,-2.82 11.28,-4.23 17.94,-4.23 6.65,0 12.63,1.41 17.94,4.23 5.3,2.82 9.47,6.71 12.5,11.69 3.03,4.98 4.54,10.58 4.54,16.81 0,6.23 -1.51,11.84 -4.54,16.81 -3.03,4.98 -7.19,8.87 -12.5,11.69 -5.3,2.82 -11.28,4.23 -17.94,4.23 -6.65,-0.01 -12.63,-1.41 -17.94,-4.23 z M 74.8,155.04 c 2.58,-1.5 4.61,-3.61 6.11,-6.34 1.5,-2.73 2.25,-5.86 2.25,-9.39 0,-3.54 -0.75,-6.67 -2.25,-9.4 -1.5,-2.73 -3.54,-4.84 -6.11,-6.34 -2.58,-1.5 -5.45,-2.25 -8.63,-2.25 -3.18,0 -6.05,0.75 -8.63,2.25 -2.58,1.5 -4.62,3.61 -6.11,6.34 -1.5,2.73 -2.25,5.86 -2.25,9.4 0,3.54 0.75,6.67 2.25,9.39 1.5,2.73 3.54,4.84 6.11,6.34 2.58,1.5 5.45,2.25 8.63,2.25 3.17,0 6.05,-0.75 8.63,-2.25 z m -8.63,42.33 H 105 V 81.25 H 66.17 Z"
   id="path260"
   style="fill:#ffffff" />
		<path
   class="st0"
   d="m 154.09,110.67 c 4.19,1.89 7.43,4.58 9.71,8.09 2.28,3.51 3.42,7.63 3.42,12.36 0,4.74 -1.14,8.84 -3.42,12.32 -2.28,3.48 -5.52,6.16 -9.71,8.05 -4.2,1.89 -9.14,2.83 -14.83,2.83 h -10.97 v 16.45 h -17.8 v -62.93 h 28.77 c 5.69,0 10.64,0.95 14.83,2.83 z m -7.64,27.24 c 1.86,-1.59 2.79,-3.85 2.79,-6.79 0,-2.94 -0.93,-5.21 -2.79,-6.83 -1.86,-1.62 -4.62,-2.43 -8.27,-2.43 h -9.89 v 18.43 h 9.89 c 3.66,0.01 6.41,-0.79 8.27,-2.38 z"
   id="path262"
   style="fill:#ffffff" />
		<path
   class="st0"
   d="m 226.38,157.02 v 13.76 h -50.53 v -62.93 h 49.36 v 13.76 h -31.74 v 10.61 h 27.96 v 13.31 h -27.96 v 11.51 h 32.91 z"
   id="path264"
   style="fill:#ffffff" />
		<path
   class="st0"
   d="m 263.78,154.05 h -9.71 v 16.72 h -17.8 v -62.93 h 28.77 c 5.69,0 10.64,0.94 14.83,2.83 4.19,1.89 7.43,4.58 9.71,8.09 2.28,3.51 3.42,7.63 3.42,12.36 0,4.56 -1.06,8.53 -3.19,11.91 -2.13,3.39 -5.17,6.04 -9.13,7.96 l 13.58,19.78 H 275.2 Z m 8.45,-29.76 c -1.86,-1.62 -4.62,-2.43 -8.27,-2.43 h -9.89 v 18.43 h 9.89 c 3.66,0 6.41,-0.79 8.27,-2.38 1.86,-1.59 2.79,-3.85 2.79,-6.79 0,-2.93 -0.93,-5.21 -2.79,-6.83 z"
   id="path266"
   style="fill:#ffffff" />
		<path
   class="st0"
   d="m 344.96,158.55 h -26.61 l -4.94,12.23 h -18.16 l 27.78,-62.93 h 17.53 l 27.87,62.93 h -18.52 z m -5.21,-13.13 -8.09,-20.14 -8.09,20.14 z"
   id="path268"
   style="fill:#ffffff" />
		<path
   class="st0"
   d="m 383.71,121.96 h -19.33 v -14.12 h 56.37 v 14.12 h -19.24 v 48.82 h -17.8 z"
   id="path270"
   style="fill:#ffffff" />
		<path
   class="st0"
   d="m 440.31,167.81 c -5.3,-2.82 -9.47,-6.71 -12.5,-11.69 -3.03,-4.97 -4.54,-10.58 -4.54,-16.81 0,-6.23 1.51,-11.84 4.54,-16.81 3.03,-4.97 7.19,-8.87 12.5,-11.69 5.3,-2.82 11.28,-4.23 17.94,-4.23 6.65,0 12.63,1.41 17.94,4.23 5.3,2.82 9.47,6.71 12.5,11.69 3.03,4.98 4.54,10.58 4.54,16.81 0,6.23 -1.51,11.84 -4.54,16.81 -3.03,4.98 -7.19,8.87 -12.5,11.69 -5.3,2.82 -11.28,4.23 -17.94,4.23 -6.66,-0.01 -12.64,-1.41 -17.94,-4.23 z m 26.56,-12.77 c 2.58,-1.5 4.61,-3.61 6.11,-6.34 1.5,-2.73 2.25,-5.86 2.25,-9.39 0,-3.54 -0.75,-6.67 -2.25,-9.4 -1.5,-2.73 -3.54,-4.84 -6.11,-6.34 -2.58,-1.5 -5.45,-2.25 -8.63,-2.25 -3.18,0 -6.05,0.75 -8.63,2.25 -2.58,1.5 -4.62,3.61 -6.11,6.34 -1.5,2.73 -2.25,5.86 -2.25,9.4 0,3.54 0.75,6.67 2.25,9.39 1.5,2.73 3.54,4.84 6.11,6.34 2.58,1.5 5.45,2.25 8.63,2.25 3.18,0 6.05,-0.75 8.63,-2.25 z"
   id="path272"
   style="fill:#ffffff" />
	</g></g>
</g>
</svg>
